<?xml version="1.0" encoding="UTF-8"?>
<svg width="181px" height="29px" viewBox="0 0 181 29" version="1.1" xmlns="http://www.w3.org/2000/svg" xmlns:xlink="http://www.w3.org/1999/xlink">
    <!-- Generator: Sketch 54.1 (76490) - https://sketchapp.com -->
    <title>Logo</title>
    <desc>Created with Sketch.</desc>
    <g id="Page-1" stroke="none" stroke-width="1" fill="none" fill-rule="evenodd">
        <g id="v12-copy-8" transform="translate(-56.000000, -38.000000)" fill="#FFFFFF">
            <g id="header" transform="translate(0.000000, 24.000000)">
                <g id="Logo" transform="translate(56.000000, 10.000000)">
                    <g id="digit-100-copy" transform="translate(0.000000, 4.000000)">
                        <path d="M25.8461538,6.46153846 L15.0769231,6.46153846 L15.0769231,8.61538462 L25.8461538,8.61538462 L25.8461538,6.46153846 Z M25.8461538,4.30769231 L25.8461538,2.15384615 L15.0769231,2.15384615 L15.0769231,4.30769231 L25.8461538,4.30769231 Z M25.8461538,10.7692308 L15.0769231,10.7692308 L15.0769231,12.9230769 L25.8461538,12.9230769 L25.8461538,10.7692308 Z M12.9230769,15.0769231 L2.15384615,15.0769231 L2.15384615,17.2307692 L25.8461538,17.2307692 L25.8461538,15.0769231 L15.0769231,15.0769231 L12.9230769,15.0769231 Z M12.9230769,2.15384615 L2.15384615,2.15384615 L2.15384615,12.9230769 L12.9230769,12.9230769 L12.9230769,2.15384615 Z M25.8461538,19.3846154 L2.15384615,19.3846154 L2.15384615,21.5384615 L25.8461538,21.5384615 L25.8461538,19.3846154 Z M25.8461538,23.6923077 L2.15384615,23.6923077 L2.15384615,25.8461538 L25.8461538,25.8461538 L25.8461538,23.6923077 Z M0,2.15384615 L0,0 L25.8461538,0 L28,-1.02209553e-12 L28,28 L25.8461538,28 L0,28 L0,25.8461538 L1.75927649e-13,2.15384615 Z M8.61538462,2.15384615 L10.7692308,2.15384615 L10.7692308,4.30769231 L8.61538462,4.30769231 L8.61538462,2.15384615 Z M8.61538462,10.7692308 L10.7692308,10.7692308 L10.7692308,12.9230769 L8.61538462,12.9230769 L8.61538462,10.7692308 Z M4.30769231,2.15384615 L6.46153846,2.15384615 L6.46153846,4.30769231 L4.30769231,4.30769231 L4.30769231,2.15384615 Z M4.30769231,6.46153846 L6.46153846,6.46153846 L6.46153846,8.61538462 L4.30769231,8.61538462 L4.30769231,6.46153846 Z M4.30769231,10.7692308 L6.46153846,10.7692308 L6.46153846,12.9230769 L4.30769231,12.9230769 L4.30769231,10.7692308 Z M6.46153846,4.30769231 L8.61538462,4.30769231 L8.61538462,6.46153846 L6.46153846,6.46153846 L6.46153846,4.30769231 Z M10.7692308,4.30769231 L12.9230769,4.30769231 L12.9230769,6.46153846 L10.7692308,6.46153846 L10.7692308,4.30769231 Z M10.7692308,8.61538462 L12.9230769,8.61538462 L12.9230769,10.7692308 L10.7692308,10.7692308 L10.7692308,8.61538462 Z M2.15384615,4.30769231 L4.30769231,4.30769231 L4.30769231,6.46153846 L2.15384615,6.46153846 L2.15384615,4.30769231 Z M2.15384615,8.61538462 L4.30769231,8.61538462 L4.30769231,10.7692308 L2.15384615,10.7692308 L2.15384615,8.61538462 Z M6.46153846,8.61538462 L8.61538462,8.61538462 L8.61538462,10.7692308 L6.46153846,10.7692308 L6.46153846,8.61538462 Z M8.61538462,6.46153846 L10.7692308,6.46153846 L10.7692308,8.61538462 L8.61538462,8.61538462 L8.61538462,6.46153846 Z" id="Combined-Shape-Copy"></path>
                    </g>
                    <path d="M35.988,7.756 C36.492,7.756 40.916,7.728 42.652,7.784 C49.988,8.008 53.152,11.9 53.152,17.808 C53.152,23.884 49.792,28 42.568,28 L35.988,28 L35.988,7.756 Z M40.776,11.536 L40.776,24.192 L42.708,24.192 C45.48,24.192 48.168,22.484 48.168,17.752 C48.168,13.496 46.04,11.536 42.736,11.536 L40.776,11.536 Z M60.684,7.364 L60.684,11.48 L55.868,11.48 L55.868,7.364 L60.684,7.364 Z M60.656,13.524 L60.656,28 L55.868,28 L55.868,13.524 L60.656,13.524 Z M70.736,32.788 C65.276,32.788 62.56,31.304 62.56,29.344 C62.56,27.412 65.164,26.908 65.416,26.796 C64.968,26.572 63.512,25.984 63.512,24.5 C63.512,23.408 64.52,22.4 66.648,22.064 C64.604,21.14 63.652,19.404 63.652,17.836 C63.652,14.924 66.844,13.3 70.736,13.3 C72.78,13.3 73.9,13.776 74.992,14.392 C75.972,14 78.072,13.188 79.5,12.6 L79.472,16.1 L76.98,16.492 C77.12,16.912 77.232,17.556 77.232,17.808 C77.232,20.272 74.908,22.68 70.428,22.68 C70.036,22.68 69.168,22.652 68.748,22.624 C68.076,22.68 67.852,22.82 67.852,23.044 C67.852,23.464 68.692,23.492 70.26,23.604 C70.82,23.632 71.968,23.688 73.2,23.772 C77.036,24.024 78.744,25.788 78.744,28 C78.744,30.8 76.028,32.788 70.736,32.788 Z M70.568,20.104 C71.912,20.104 72.724,19.264 72.724,17.976 C72.724,16.688 71.856,15.708 70.568,15.708 C69.252,15.708 68.412,16.716 68.412,17.976 C68.412,19.236 69.252,20.104 70.568,20.104 Z M71.492,30.212 C73.62,30.212 74.208,29.764 74.208,28.952 C74.208,28.196 73.508,27.72 72.22,27.636 L69.252,27.44 C67.824,27.356 67.208,28.112 67.208,28.784 C67.208,29.876 68.608,30.212 71.492,30.212 Z M86.248,7.364 L86.248,11.48 L81.432,11.48 L81.432,7.364 L86.248,7.364 Z M86.22,13.524 L86.22,28 L81.432,28 L81.432,13.524 L86.22,13.524 Z M98.624,16.8 L95.432,16.8 L95.46,23.912 C95.46,24.752 95.88,24.92 96.552,24.92 L98.652,24.92 L98.652,27.776 C98.26,27.972 97.532,28.196 95.936,28.196 C91.764,28.196 90.672,26.46 90.672,24.136 L90.672,16.8 L88.32,16.8 L88.32,13.524 L90.84,13.524 L91.568,9.072 L95.432,9.072 L95.432,13.496 L98.624,13.496 L98.624,16.8 Z M105.484,28.28 C102.712,28.28 100.528,26.684 100.528,23.772 C100.528,20.608 102.88,18.844 108.06,18.844 L109.544,18.816 L109.544,18.088 C109.544,16.94 108.844,16.352 107.528,16.38 C106.576,16.408 105.428,16.8 105.008,17.92 L101.088,17.92 C101.256,14.728 104.084,13.244 107.752,13.244 C112.484,13.244 114.108,15.092 114.108,17.78 L114.108,28 L110.132,28 L109.74,25.62 C108.788,27.664 107.472,28.28 105.484,28.28 Z M107.108,25.2 C108.368,25.2 109.516,24.22 109.544,23.128 L109.544,21.168 L108.368,21.168 C106.912,21.168 105.036,21.672 105.036,23.268 C105.036,24.5 105.988,25.2 107.108,25.2 Z M122.004,28.28 C117.188,28.28 116.908,25.9 116.908,23.772 L116.908,7.196 L121.612,7.196 L121.612,23.184 C121.612,24.052 121.864,24.752 123.236,24.92 L123.852,24.976 L123.852,27.888 C123.264,28.112 122.62,28.28 122.004,28.28 Z M131.356,23.044 L131.356,28 L126.26,28 L126.26,23.044 L131.356,23.044 Z M142.08,32.788 C136.62,32.788 133.904,31.304 133.904,29.344 C133.904,27.412 136.508,26.908 136.76,26.796 C136.312,26.572 134.856,25.984 134.856,24.5 C134.856,23.408 135.864,22.4 137.992,22.064 C135.948,21.14 134.996,19.404 134.996,17.836 C134.996,14.924 138.188,13.3 142.08,13.3 C144.124,13.3 145.244,13.776 146.336,14.392 C147.316,14 149.416,13.188 150.844,12.6 L150.816,16.1 L148.324,16.492 C148.464,16.912 148.576,17.556 148.576,17.808 C148.576,20.272 146.252,22.68 141.772,22.68 C141.38,22.68 140.512,22.652 140.092,22.624 C139.42,22.68 139.196,22.82 139.196,23.044 C139.196,23.464 140.036,23.492 141.604,23.604 C142.164,23.632 143.312,23.688 144.544,23.772 C148.38,24.024 150.088,25.788 150.088,28 C150.088,30.8 147.372,32.788 142.08,32.788 Z M141.912,20.104 C143.256,20.104 144.068,19.264 144.068,17.976 C144.068,16.688 143.2,15.708 141.912,15.708 C140.596,15.708 139.756,16.716 139.756,17.976 C139.756,19.236 140.596,20.104 141.912,20.104 Z M142.836,30.212 C144.964,30.212 145.552,29.764 145.552,28.952 C145.552,28.196 144.852,27.72 143.564,27.636 L140.596,27.44 C139.168,27.356 138.552,28.112 138.552,28.784 C138.552,29.876 139.952,30.212 142.836,30.212 Z M158.936,28.28 C154.512,28.28 151.768,25.2 151.768,20.86 C151.768,16.324 154.708,13.244 158.964,13.244 C163.416,13.244 166.132,16.464 166.132,20.86 C166.132,25.172 163.36,28.28 158.936,28.28 Z M158.964,24.78 C160.952,24.78 161.484,22.596 161.484,20.692 C161.484,18.76 160.952,16.688 158.964,16.688 C156.948,16.688 156.416,18.76 156.416,20.692 C156.416,22.596 156.948,24.78 158.964,24.78 Z M180.888,13.524 L175.372,28 L172.152,28 L166.608,13.524 L170.892,13.524 L173.72,21.84 L173.804,21.84 L176.576,13.524 L180.888,13.524 Z" id="Digital.gov" fill-rule="nonzero"></path>
                </g>
            </g>
        </g>
    </g>
</svg>